<?xml version="1.0" encoding="UTF-8"?>
<!DOCTYPE svg PUBLIC "-//W3C//DTD SVG 1.1//EN" "http://www.w3.org/Graphics/SVG/1.1/DTD/svg11.dtd">
<svg xmlns="http://www.w3.org/2000/svg" version="1.1" width="494px" height="505px" style="shape-rendering:geometricPrecision; text-rendering:geometricPrecision; image-rendering:optimizeQuality; fill-rule:evenodd; clip-rule:evenodd" xmlns:xlink="http://www.w3.org/1999/xlink">
<g><path style="opacity:0.078" fill="#e5e6e5" d="M 490.5,-0.5 C 491.5,-0.5 492.5,-0.5 493.5,-0.5C 493.5,-0.166667 493.5,0.166667 493.5,0.5C 492.391,0.556884 491.391,0.890217 490.5,1.5C 490.5,0.833333 490.5,0.166667 490.5,-0.5 Z"/></g>
<g><path style="opacity:0.999" fill="#d41a0d" d="M 493.5,0.5 C 493.5,2.83333 493.5,5.16667 493.5,7.5C 492.395,8.60048 491.062,9.26714 489.5,9.5C 488.005,9.98869 486.671,10.6554 485.5,11.5C 482.9,12.5992 480.734,14.2659 479,16.5C 471.915,18.8789 466.415,23.7123 462.5,31C 462.833,31.3333 463.167,31.6667 463.5,32C 462.426,32.7387 461.759,33.7387 461.5,35C 462.69,36.8077 462.69,38.641 461.5,40.5C 461.939,43.1761 462.939,45.5095 464.5,47.5C 464.5,47.8333 464.5,48.1667 464.5,48.5C 463.167,48.5 461.833,48.5 460.5,48.5C 458.901,48.2322 457.568,48.5655 456.5,49.5C 449.314,51.4699 441.981,52.8033 434.5,53.5C 433.833,53.8333 433.167,54.1667 432.5,54.5C 423.885,57.3934 416.719,62.3934 411,69.5C 410,72.5 409,75.5 408,78.5C 406.977,82.3169 407.477,85.8169 409.5,89C 408.944,89.3826 408.611,89.8826 408.5,90.5C 408.557,91.609 408.89,92.609 409.5,93.5C 409.5,93.8333 409.5,94.1667 409.5,94.5C 408.652,95.625 407.652,95.625 406.5,94.5C 406.167,94.5 405.833,94.5 405.5,94.5C 404.5,94.5 403.5,94.5 402.5,94.5C 397.454,95.0947 392.454,95.0947 387.5,94.5C 376.083,96.5217 364.75,98.855 353.5,101.5C 352.833,101.833 352.167,102.167 351.5,102.5C 351.167,102.5 350.833,102.5 350.5,102.5C 348.694,103.024 347.028,103.691 345.5,104.5C 344.833,104.5 344.167,104.5 343.5,104.5C 344.306,103.272 345.306,102.272 346.5,101.5C 346.833,101.5 347.167,101.5 347.5,101.5C 348.167,101.5 348.5,101.167 348.5,100.5C 349.873,98.7935 351.539,97.4602 353.5,96.5C 354.833,95.8333 355.833,94.8333 356.5,93.5C 358.273,90.9401 360.273,88.6068 362.5,86.5C 363.906,86.0269 364.573,85.0269 364.5,83.5C 371.175,74.3283 375.842,64.8283 378.5,55C 379.416,54.7216 380.082,54.2216 380.5,53.5C 381.234,52.2921 381.567,50.9587 381.5,49.5C 383.603,45.023 385.27,40.6897 386.5,36.5C 392.404,36.6787 398.071,36.0121 403.5,34.5C 406.272,34.78 408.772,34.1134 411,32.5C 411.671,33.2524 412.504,33.5858 413.5,33.5C 414.609,33.4431 415.609,33.1098 416.5,32.5C 416.833,32.5 417.167,32.5 417.5,32.5C 418.791,32.7373 419.791,32.404 420.5,31.5C 420.833,31.5 421.167,31.5 421.5,31.5C 422.791,31.7373 423.791,31.404 424.5,30.5C 428.764,30.1778 432.43,28.5111 435.5,25.5C 436.183,25.8627 436.85,26.1961 437.5,26.5C 438.995,26.0113 440.329,25.3446 441.5,24.5C 443.426,23.7577 445.259,22.7577 447,21.5C 447.333,21.8333 447.667,22.1667 448,22.5C 448.605,20.5188 449.605,20.1854 451,21.5C 457.606,17.6865 464.273,14.0198 471,10.5C 472.016,11.6341 472.683,11.3008 473,9.5C 473.333,9.83333 473.667,10.1667 474,10.5C 476.071,9.63613 477.738,8.3028 479,6.5C 480.558,7.3452 481.558,6.67854 482,4.5C 482.333,4.83333 482.667,5.16667 483,5.5C 485.448,4.02679 487.948,2.69345 490.5,1.5C 491.391,0.890217 492.391,0.556884 493.5,0.5 Z"/></g>
<g><path style="opacity:0.655" fill="#e68682" d="M -0.5,1.5 C 0.5,1.83333 1.16667,2.5 1.5,3.5C 0.833333,3.5 0.5,3.83333 0.5,4.5C 0.166667,4.5 -0.166667,4.5 -0.5,4.5C -0.5,3.5 -0.5,2.5 -0.5,1.5 Z"/></g>
<g><path style="opacity:0.999" fill="#d41b0e" d="M 1.5,3.5 C 4.39324,4.17988 6.89324,5.51321 9,7.5C 9.33333,7.16667 9.66667,6.83333 10,6.5C 11.1769,8.17574 12.6769,9.50907 14.5,10.5C 15.086,10.2907 15.586,9.95735 16,9.5C 16.918,11.6324 18.2513,12.299 20,11.5C 22.6726,14.0021 25.6726,16.0021 29,17.5C 29.3333,17.1667 29.6667,16.8333 30,16.5C 32.864,18.6805 35.864,20.6805 39,22.5C 39.3333,22.1667 39.6667,21.8333 40,21.5C 43.6179,23.7341 47.1179,25.4008 50.5,26.5C 51.1667,26.8333 51.8333,27.1667 52.5,27.5C 55.7932,28.72 59.4599,30.0533 63.5,31.5C 64.086,31.2907 64.586,30.9574 65,30.5C 67.0664,32.64 69.3998,33.3067 72,32.5C 72.9277,34.3348 74.0944,34.6682 75.5,33.5C 79.838,35.968 84.5047,37.3013 89.5,37.5C 91.717,38.3686 94.0504,38.702 96.5,38.5C 100.151,38.2539 103.651,38.2539 107,38.5C 110.904,49.1751 115.07,59.6751 119.5,70C 123.931,78.0733 128.931,85.5733 134.5,92.5C 134.427,94.0269 135.094,95.0269 136.5,95.5C 138.833,97.5 141.167,99.5 143.5,101.5C 144.795,102.488 146.128,103.488 147.5,104.5C 148.29,105.401 149.29,106.068 150.5,106.5C 150.5,106.833 150.5,107.167 150.5,107.5C 150.167,107.5 149.833,107.5 149.5,107.5C 148.833,107.167 148.167,106.833 147.5,106.5C 147.167,106.5 146.833,106.5 146.5,106.5C 146.158,105.662 145.492,105.328 144.5,105.5C 139.116,104.372 133.783,103.039 128.5,101.5C 127.609,100.89 126.609,100.557 125.5,100.5C 125.167,100.5 124.833,100.5 124.5,100.5C 123.167,100.167 121.833,99.8333 120.5,99.5C 113.085,98.5415 105.585,97.5415 98,96.5C 93.23,96.7621 88.5634,97.4288 84,98.5C 83.5357,97.9056 83.369,97.2389 83.5,96.5C 84.3446,95.3285 85.0113,93.9952 85.5,92.5C 85.3037,87.9519 85.3037,83.4519 85.5,79C 83.8753,78.1475 83.5419,77.1475 84.5,76C 83.8333,74.6667 82.8333,73.6667 81.5,73C 82.2797,71.927 82.113,70.7604 81,69.5C 78.1793,67.6776 75.6793,65.5109 73.5,63C 65.8639,58.9905 57.3639,55.8238 48,53.5C 45.8039,54.7524 43.8039,54.4191 42,52.5C 41.586,52.9574 41.086,53.2907 40.5,53.5C 37.667,52.0668 34.667,51.4001 31.5,51.5C 30.5084,51.6716 29.8417,51.3382 29.5,50.5C 29.5,50.1667 29.5,49.8333 29.5,49.5C 30.3382,49.1583 30.6716,48.4916 30.5,47.5C 31.1667,44.5 31.8333,41.5 32.5,38.5C 32.4431,37.391 32.1098,36.391 31.5,35.5C 27.3344,27.194 21.3344,21.194 13.5,17.5C 13.0269,16.0937 12.0269,15.427 10.5,15.5C 7.73701,13.7418 5.07035,12.7418 2.5,12.5C 3.83333,12.1667 3.83333,11.8333 2.5,11.5C 0.895779,10.713 0.229113,9.3797 0.5,7.5C 0.5,6.5 0.5,5.5 0.5,4.5C 0.5,3.83333 0.833333,3.5 1.5,3.5 Z"/></g>
<g><path style="opacity:0.036" fill="#e5e6e5" d="M -0.5,7.5 C -0.166667,7.5 0.166667,7.5 0.5,7.5C 0.229113,9.3797 0.895779,10.713 2.5,11.5C 2.5,11.8333 2.5,12.1667 2.5,12.5C 1.39105,12.5569 0.391047,12.8902 -0.5,13.5C -0.5,11.5 -0.5,9.5 -0.5,7.5 Z"/></g>
<g><path style="opacity:0.029" fill="#e8d3d3" d="M 489.5,9.5 C 489.611,10.1174 489.944,10.6174 490.5,11C 488.866,11.4935 487.199,11.6602 485.5,11.5C 486.671,10.6554 488.005,9.98869 489.5,9.5 Z"/></g>
<g><path style="opacity:0.039" fill="#eac7c4" d="M 10.5,15.5 C 12.0269,15.427 13.0269,16.0937 13.5,17.5C 11.9731,17.573 10.9731,16.9063 10.5,15.5 Z"/></g>
<g><path style="opacity:0.047" fill="#e8d1d1" d="M 441.5,24.5 C 440.329,25.3446 438.995,26.0113 437.5,26.5C 437.47,25.5028 437.97,24.8361 439,24.5C 440.131,23.6647 440.964,23.6647 441.5,24.5 Z"/></g>
<g><path style="opacity:0.02" fill="#e7d6d5" d="M 50.5,26.5 C 51.6226,25.2426 52.2893,25.5759 52.5,27.5C 51.8333,27.1667 51.1667,26.8333 50.5,26.5 Z"/></g>
<g><path style="opacity:0.612" fill="#e89b96" d="M 424.5,30.5 C 423.791,31.404 422.791,31.7373 421.5,31.5C 422.172,30.7326 423.005,30.0659 424,29.5C 424.399,29.7284 424.565,30.0618 424.5,30.5 Z"/></g>
<g><path style="opacity:0.612" fill="#e89b96" d="M 420.5,31.5 C 419.791,32.404 418.791,32.7373 417.5,32.5C 418.172,31.7326 419.005,31.0659 420,30.5C 420.399,30.7284 420.565,31.0618 420.5,31.5 Z"/></g>
<g><path style="opacity:0.612" fill="#eaa9a4" d="M 416.5,32.5 C 415.609,33.1098 414.609,33.4431 413.5,33.5C 414.221,31.6182 415.221,31.2848 416.5,32.5 Z"/></g>
<g><path style="opacity:0.029" fill="#e7d9d8" d="M 31.5,35.5 C 32.1098,36.391 32.4431,37.391 32.5,38.5C 30.6182,37.779 30.2848,36.779 31.5,35.5 Z"/></g>
<g><path style="opacity:0.303" fill="#e9acaa" d="M 403.5,34.5 C 398.071,36.0121 392.404,36.6787 386.5,36.5C 391.391,35.2961 397.058,34.6295 403.5,34.5 Z"/></g>
<g><path style="opacity:0.606" fill="#e9a29e" d="M 89.5,37.5 C 89.56,36.9569 89.8933,36.6236 90.5,36.5C 92.6568,37.0505 94.6568,37.7171 96.5,38.5C 94.0504,38.702 91.717,38.3686 89.5,37.5 Z"/></g>
<g><path style="opacity:0.033" fill="#e5e6e5" d="M 30.5,47.5 C 30.6716,48.4916 30.3382,49.1583 29.5,49.5C 28.5613,48.6726 28.8946,48.0059 30.5,47.5 Z"/></g>
<g><path style="opacity:0.024" fill="#e5e6e5" d="M 464.5,47.5 C 465.376,47.3691 466.043,47.7025 466.5,48.5C 465.743,49.7733 465.077,49.7733 464.5,48.5C 464.5,48.1667 464.5,47.8333 464.5,47.5 Z"/></g>
<g><path style="opacity:0.041" fill="#e8cecd" d="M 456.5,49.5 C 457.568,48.5655 458.901,48.2322 460.5,48.5C 460.631,49.2389 460.464,49.9056 460,50.5C 458.989,49.6634 457.822,49.33 456.5,49.5 Z"/></g>
<g><path style="opacity:0.04" fill="#e5e6e5" d="M 381.5,49.5 C 381.567,50.9587 381.234,52.2921 380.5,53.5C 379.529,52.0379 379.862,50.7046 381.5,49.5 Z"/></g>
<g><path style="opacity:0.035" fill="#e5e6e5" d="M 29.5,50.5 C 29.8417,51.3382 30.5084,51.6716 31.5,51.5C 30.6136,52.7759 29.6136,52.7759 28.5,51.5C 28.6236,50.8933 28.9569,50.56 29.5,50.5 Z"/></g>
<g><path style="opacity:0.061" fill="#e7d6d5" d="M 434.5,53.5 C 434.289,55.4241 433.623,55.7574 432.5,54.5C 433.167,54.1667 433.833,53.8333 434.5,53.5 Z"/></g>
<g><path style="opacity:0.302" fill="#e9aba8" d="M 364.5,83.5 C 364.573,85.0269 363.906,86.0269 362.5,86.5C 362.427,84.9731 363.094,83.9731 364.5,83.5 Z"/></g>
<g><path style="opacity:0.043" fill="#e5e6e5" d="M 408.5,90.5 C 410.382,91.221 410.715,92.221 409.5,93.5C 408.89,92.609 408.557,91.609 408.5,90.5 Z"/></g>
<g><path style="opacity:0.026" fill="#e7dcdc" d="M 85.5,92.5 C 85.0113,93.9952 84.3446,95.3285 83.5,96.5C 83.0618,96.5654 82.7284,96.3988 82.5,96C 82.9743,94.2714 83.9743,93.1047 85.5,92.5 Z"/></g>
<g><path style="opacity:0.322" fill="#e9aba8" d="M 134.5,92.5 C 135.906,92.9731 136.573,93.9731 136.5,95.5C 135.094,95.0269 134.427,94.0269 134.5,92.5 Z"/></g>
<g><path style="opacity:0.624" fill="#e99d97" d="M 356.5,93.5 C 355.833,94.8333 354.833,95.8333 353.5,96.5C 353.5,94.5 354.5,93.5 356.5,93.5 Z"/></g>
<g><path style="opacity:0.058" fill="#e6e1e0" d="M 402.5,94.5 C 403.5,94.5 404.5,94.5 405.5,94.5C 405.833,95.8333 406.167,95.8333 406.5,94.5C 407.652,95.625 408.652,95.625 409.5,94.5C 410.338,94.8417 410.672,95.5084 410.5,96.5C 408.143,96.6633 405.81,96.4966 403.5,96C 402.944,95.6174 402.611,95.1174 402.5,94.5 Z"/></g>
<g><path style="opacity:0.031" fill="#e5e6e5" d="M 410.5,96.5 C 411.833,97.1667 411.833,97.1667 410.5,96.5 Z"/></g>
<g><path style="opacity:0.022" fill="#e7dbdb" d="M 348.5,100.5 C 348.5,101.167 348.167,101.5 347.5,101.5C 347.167,100.167 346.833,100.167 346.5,101.5C 345.115,100.698 345.282,100.031 347,99.5C 347.765,99.5699 348.265,99.9033 348.5,100.5 Z"/></g>
<g><path style="opacity:0.043" fill="#e9ccc9" d="M 120.5,99.5 C 121.833,99.8333 123.167,100.167 124.5,100.5C 122.872,101.853 121.538,101.519 120.5,99.5 Z"/></g>
<g><path style="opacity:0.035" fill="#e5e6e5" d="M 143.5,100.5 C 144.833,101.167 144.833,101.167 143.5,100.5 Z"/></g>
<g><path style="opacity:0.047" fill="#eac7c4" d="M 125.5,100.5 C 126.609,100.557 127.609,100.89 128.5,101.5C 127.221,102.715 126.221,102.382 125.5,100.5 Z"/></g>
<g><path style="opacity:0.042" fill="#e5e6e5" d="M 350.5,102.5 C 350.5,103.167 350.833,103.5 351.5,103.5C 349.735,104.461 347.735,104.795 345.5,104.5C 347.028,103.691 348.694,103.024 350.5,102.5 Z"/></g>
<g><path style="opacity:0.022" fill="#e7d6d5" d="M 353.5,101.5 C 353.5,102.833 352.833,103.5 351.5,103.5C 351.5,103.167 351.5,102.833 351.5,102.5C 352.167,102.167 352.833,101.833 353.5,101.5 Z"/></g>
<g><path style="opacity:0.034" fill="#e7d9d8" d="M 147.5,104.5 C 149.179,104.285 150.179,104.952 150.5,106.5C 149.29,106.068 148.29,105.401 147.5,104.5 Z"/></g>
<g><path style="opacity:0.024" fill="#e7dada" d="M 149.5,108.5 C 150.167,108.5 150.5,108.167 150.5,107.5C 150.5,107.167 150.5,106.833 150.5,106.5C 151.222,106.082 151.722,105.416 152,104.5C 153.956,106.939 153.623,108.605 151,109.5C 150.235,109.43 149.735,109.097 149.5,108.5 Z"/></g>
<g><path style="opacity:0.061" fill="#e9cfcd" d="M 343.5,104.5 C 344.167,104.5 344.833,104.5 345.5,104.5C 343.814,106.147 342.147,106.314 340.5,105C 341.448,104.517 342.448,104.351 343.5,104.5 Z"/></g>
<g><path style="opacity:0.031" fill="#e5e6e5" d="M 144.5,105.5 C 145.492,105.328 146.158,105.662 146.5,106.5C 146.5,106.833 146.5,107.167 146.5,107.5C 145.167,107.5 144.5,106.833 144.5,105.5 Z"/></g>
<g><path style="opacity:0.02" fill="#e7d9d8" d="M 147.5,106.5 C 148.167,106.833 148.833,107.167 149.5,107.5C 149.5,107.833 149.5,108.167 149.5,108.5C 148.209,108.737 147.209,108.404 146.5,107.5C 147.167,107.5 147.5,107.167 147.5,106.5 Z"/></g>
<g><path style="opacity:0.014" fill="#e8d0d0" d="M 369.5,116.5 C 368.5,115.167 367.5,115.167 366.5,116.5C 367.5,113.833 368.5,113.833 369.5,116.5 Z"/></g>
<g><path style="opacity:1" fill="#d31208" d="M 78.5,119.5 C 78.8212,121.048 79.8212,121.715 81.5,121.5C 89.7749,128.318 98.1082,135.151 106.5,142C 110.554,144.694 114.888,146.861 119.5,148.5C 120.192,147.975 120.692,147.308 121,146.5C 121.333,146.833 121.667,147.167 122,147.5C 130.299,142.399 139.466,138.233 149.5,135C 151.282,134.186 152.782,133.019 154,131.5C 154.333,131.833 154.667,132.167 155,132.5C 156.667,131.5 158.333,130.5 160,129.5C 162.344,130.197 164.511,129.531 166.5,127.5C 167.086,127.709 167.586,128.043 168,128.5C 170.587,126.804 173.421,125.804 176.5,125.5C 177.791,125.737 178.791,125.404 179.5,124.5C 179.833,124.5 180.167,124.5 180.5,124.5C 181.791,124.737 182.791,124.404 183.5,123.5C 186.985,123.309 190.151,122.309 193,120.5C 194.707,121.138 196.54,121.138 198.5,120.5C 199.791,120.737 200.791,120.404 201.5,119.5C 202.5,119.5 203.5,119.5 204.5,119.5C 206.099,119.768 207.432,119.434 208.5,118.5C 210.167,118.5 211.833,118.5 213.5,118.5C 215.903,118.552 218.236,118.219 220.5,117.5C 230.435,116.836 240.769,116.502 251.5,116.5C 257.502,118.278 263.502,118.945 269.5,118.5C 271.739,119.788 274.072,120.788 276.5,121.5C 277.609,121.557 278.609,121.89 279.5,122.5C 280.117,122.389 280.617,122.056 281,121.5C 283.638,123.035 286.472,124.035 289.5,124.5C 290.209,125.404 291.209,125.737 292.5,125.5C 293.117,125.389 293.617,125.056 294,124.5C 296.884,126.215 300.217,127.882 304,129.5C 304.333,129.167 304.667,128.833 305,128.5C 311.236,131.056 317.236,134.056 323,137.5C 323.333,137.167 323.667,136.833 324,136.5C 324.72,138.056 325.887,139.056 327.5,139.5C 328.779,140.715 329.779,140.382 330.5,138.5C 340.663,131.584 350.997,124.917 361.5,118.5C 363.153,118.34 364.486,117.674 365.5,116.5C 365.833,116.5 366.167,116.5 366.5,116.5C 367.5,115.167 368.5,115.167 369.5,116.5C 369.359,120.416 368.026,124.249 365.5,128C 365.833,128.333 366.167,128.667 366.5,129C 361.294,137.128 355.794,145.628 350,154.5C 349.333,156.167 349.333,157.833 350,159.5C 351.617,160.851 352.784,162.518 353.5,164.5C 355.768,165.544 358.101,165.711 360.5,165C 368.223,160.614 375.223,156.114 381.5,151.5C 382.492,151.672 383.158,151.338 383.5,150.5C 389.835,146.487 396.168,142.487 402.5,138.5C 404.403,138.204 406.07,137.537 407.5,136.5C 408.5,136.5 409.5,136.5 410.5,136.5C 411.214,138.746 411.048,141.079 410,143.5C 398.961,155.746 389.794,168.246 382.5,181C 383.479,182.779 383.146,184.445 381.5,186C 382.297,189.241 384.297,191.408 387.5,192.5C 393.304,191.905 398.97,190.239 404.5,187.5C 405.791,187.737 406.791,187.404 407.5,186.5C 413.042,183.128 418.709,179.961 424.5,177C 428.732,175.201 433.065,173.701 437.5,172.5C 439.5,173.167 440.833,174.5 441.5,176.5C 439.935,179.962 438.102,183.295 436,186.5C 429.778,192.356 423.278,197.856 416.5,203C 412.1,206.732 408.433,211.065 405.5,216C 405.703,218.406 406.703,220.406 408.5,222C 407.366,223.016 407.699,223.683 409.5,224C 409.043,224.414 408.709,224.914 408.5,225.5C 410.691,230.28 412.191,235.28 413,240.5C 414.65,241.891 415.15,243.391 414.5,245C 416.564,246.018 416.898,247.351 415.5,249C 417.459,255.34 418.792,261.506 419.5,267.5C 420.828,272.137 421.995,276.804 423,281.5C 424.197,293.873 425.03,306.206 425.5,318.5C 424.979,323.524 424.312,328.524 423.5,333.5C 424.391,337.044 424.057,340.544 422.5,344C 423.266,346.835 422.932,349.668 421.5,352.5C 420.89,353.391 420.557,354.391 420.5,355.5C 419.941,361.691 418.608,367.691 416.5,373.5C 415.662,373.842 415.328,374.508 415.5,375.5C 415.611,376.117 415.944,376.617 416.5,377C 414.833,380 413.167,383 411.5,386C 411.833,386.333 412.167,386.667 412.5,387C 393.632,432.563 361.132,466.397 315,488.5C 311.501,488.069 308.501,489.402 306,492.5C 305.586,492.043 305.086,491.709 304.5,491.5C 300.457,492.962 296.957,494.628 294,496.5C 292.211,496.623 290.378,496.623 288.5,496.5C 278.315,500.307 267.981,502.307 257.5,502.5C 254.833,502.833 252.167,503.167 249.5,503.5C 246.615,503.194 243.948,503.527 241.5,504.5C 238.833,504.5 236.167,504.5 233.5,504.5C 231.052,503.527 228.385,503.194 225.5,503.5C 222.57,502.701 219.57,502.368 216.5,502.5C 213.794,502.425 211.127,502.092 208.5,501.5C 207.609,500.89 206.609,500.557 205.5,500.5C 204.833,500.5 204.167,500.5 203.5,500.5C 202.391,500.443 201.391,500.11 200.5,499.5C 198.708,499.634 197.042,499.301 195.5,498.5C 194.391,498.443 193.391,498.11 192.5,497.5C 187.828,496.55 183.661,495.217 180,493.5C 178.984,494.634 178.317,494.301 178,492.5C 177.667,492.833 177.333,493.167 177,493.5C 171.877,490.718 166.377,487.718 160.5,484.5C 160.158,483.662 159.492,483.328 158.5,483.5C 156.849,482.03 155.015,480.697 153,479.5C 152.667,479.833 152.333,480.167 152,480.5C 145.783,475.334 139.283,469.834 132.5,464C 124.527,455.869 117.527,447.036 111.5,437.5C 111.672,436.508 111.338,435.842 110.5,435.5C 108.733,433.062 107.399,430.395 106.5,427.5C 106.068,426.29 105.401,425.29 104.5,424.5C 103.833,422.5 103.167,420.5 102.5,418.5C 102.573,416.973 101.906,415.973 100.5,415.5C 99.1401,411.566 97.4734,407.732 95.5,404C 95.8333,403.667 96.1667,403.333 96.5,403C 95.7616,399.673 94.4282,396.673 92.5,394C 93.056,393.617 93.3893,393.117 93.5,392.5C 92.8902,391.609 92.5569,390.609 92.5,389.5C 92.0472,388.542 91.3805,387.708 90.5,387C 91.2911,384.25 91.2911,381.417 90.5,378.5C 90.3713,376.784 90.038,375.117 89.5,373.5C 88.4664,366.157 87.4664,358.49 86.5,350.5C 86.8293,341.156 87.1627,331.822 87.5,322.5C 87.8333,322.5 88.1667,322.5 88.5,322.5C 89.3432,324.487 90.0098,326.654 90.5,329C 89.6448,334.009 89.6448,338.842 90.5,343.5C 93.1716,354.995 95.5049,366.329 97.5,377.5C 97.6596,379.153 98.3263,380.486 99.5,381.5C 113.243,427.238 142.576,457.238 187.5,471.5C 188.209,472.404 189.209,472.737 190.5,472.5C 191.117,472.389 191.617,472.056 192,471.5C 195.069,473.714 198.403,474.381 202,473.5C 218.307,477.507 234.807,478.507 251.5,476.5C 253.735,476.795 255.735,476.461 257.5,475.5C 260.807,474.949 264.14,474.616 267.5,474.5C 268.391,473.89 269.391,473.557 270.5,473.5C 271.75,473.423 272.583,472.756 273,471.5C 275.432,472.45 277.932,472.45 280.5,471.5C 282.698,471.125 284.698,470.458 286.5,469.5C 287.609,469.443 288.609,469.11 289.5,468.5C 290.167,468.167 290.833,467.833 291.5,467.5C 292.458,467.047 293.292,466.381 294,465.5C 295.016,466.634 295.683,466.301 296,464.5C 296.414,464.957 296.914,465.291 297.5,465.5C 300.188,464.487 302.854,463.487 305.5,462.5C 306.5,462.167 307.167,461.5 307.5,460.5C 310.22,459.365 312.887,458.032 315.5,456.5C 316.492,456.672 317.158,456.338 317.5,455.5C 329.779,447.926 340.779,438.259 350.5,426.5C 351.906,426.027 352.573,425.027 352.5,423.5C 357.355,417.571 361.022,411.904 363.5,406.5C 364.906,406.027 365.573,405.027 365.5,403.5C 366.658,400.011 367.991,396.678 369.5,393.5C 370.674,392.486 371.34,391.153 371.5,389.5C 371.366,387.708 371.699,386.042 372.5,384.5C 373.404,383.791 373.737,382.791 373.5,381.5C 373.389,380.883 373.056,380.383 372.5,380C 374.495,377.2 375.495,374.033 375.5,370.5C 376.468,368.393 376.802,366.059 376.5,363.5C 377.794,354.949 378.461,346.616 378.5,338.5C 378.806,335.615 378.473,332.948 377.5,330.5C 375.028,322.506 373.695,314.506 373.5,306.5C 373.443,305.391 373.11,304.391 372.5,303.5C 372.5,303.167 372.5,302.833 372.5,302.5C 372.167,301.833 371.833,301.167 371.5,300.5C 370.11,298.831 369.777,297.164 370.5,295.5C 370.167,294.5 369.5,293.833 368.5,293.5C 367.623,290.144 366.289,286.144 364.5,281.5C 363.974,279.77 362.974,278.436 361.5,277.5C 348.87,252.02 330.703,234.02 307,223.5C 303.345,220.318 299.345,218.652 295,218.5C 293.663,216.996 291.996,215.996 290,215.5C 287.398,215.899 284.898,215.899 282.5,215.5C 278.366,213.669 274.032,212.335 269.5,211.5C 268.167,211.167 266.833,210.833 265.5,210.5C 250.069,209.707 234.902,209.707 220,210.5C 218.672,212.669 217.006,213.002 215,211.5C 211.42,212.386 208.087,213.72 205,215.5C 203.211,215.623 201.378,215.623 199.5,215.5C 193.09,217.827 187.423,220.493 182.5,223.5C 181.209,223.263 180.209,223.596 179.5,224.5C 175.286,227.973 170.62,230.806 165.5,233C 160.032,237.467 154.865,242.3 150,247.5C 144.862,255.342 140.029,262.175 135.5,268C 135.833,268.333 136.167,268.667 136.5,269C 133.19,272.96 131.523,277.293 131.5,282C 130.833,282.333 130.167,282.667 129.5,283C 130.479,284.779 130.146,286.445 128.5,288C 128.833,288.333 129.167,288.667 129.5,289C 126.833,303 126.833,317 129.5,331C 129.167,331.333 128.833,331.667 128.5,332C 130.092,336.247 131.759,340.747 133.5,345.5C 133.5,346.167 133.5,346.833 133.5,347.5C 132.07,347.421 130.736,347.754 129.5,348.5C 126.852,346.461 124.018,345.794 121,346.5C 120.612,345.572 119.945,344.905 119,344.5C 116.923,343.983 114.923,343.316 113,342.5C 112.667,342.833 112.333,343.167 112,343.5C 109.705,343.311 107.705,341.977 106,339.5C 105.667,339.833 105.333,340.167 105,340.5C 103.951,338.893 102.451,338.227 100.5,338.5C 103.417,332.297 107.417,326.797 112.5,322C 109.838,319.015 106.838,316.515 103.5,314.5C 102.2,313.173 100.867,311.84 99.5,310.5C 100.188,309.145 101.188,308.145 102.5,307.5C 103.5,307.167 104.167,306.5 104.5,305.5C 104.5,305.167 104.5,304.833 104.5,304.5C 105.289,304.217 105.956,303.717 106.5,303C 104.365,302.13 103.365,300.963 103.5,299.5C 103.672,298.508 103.338,297.842 102.5,297.5C 99.5278,294.084 97.1944,290.75 95.5,287.5C 95.9767,286.522 96.6433,285.689 97.5,285C 97.1667,284.667 96.8333,284.333 96.5,284C 100.534,281.299 103.868,277.966 106.5,274C 103.792,272.21 101.458,270.71 99.5,269.5C 98.7095,268.599 97.7095,267.932 96.5,267.5C 94.8333,266.833 93.1667,266.167 91.5,265.5C 90.7095,264.599 89.7095,263.932 88.5,263.5C 85.8068,262.153 83.1401,260.82 80.5,259.5C 80.5,258.833 80.1667,258.5 79.5,258.5C 78.8333,258.5 78.5,258.833 78.5,259.5C 78.8333,260.5 79.5,261.167 80.5,261.5C 82.9332,266.441 85.5999,271.274 88.5,276C 82.5953,282.397 76.9286,288.897 71.5,295.5C 69.0144,296.462 69.0144,297.295 71.5,298C 71.1667,298.333 70.8333,298.667 70.5,299C 74.1938,302.893 77.5271,307.06 80.5,311.5C 76.5764,316.363 72.9097,321.363 69.5,326.5C 70.8898,330.281 72.5565,333.947 74.5,337.5C 70.9275,340.903 67.9275,344.737 65.5,349C 59.4348,352.518 53.1014,355.351 46.5,357.5C 45.0048,357.989 43.6715,358.655 42.5,359.5C 42.1667,359.5 41.8333,359.5 41.5,359.5C 40.8333,359.833 40.1667,360.167 39.5,360.5C 37.9261,358.898 37.2594,356.898 37.5,354.5C 37.1667,353.833 36.8333,353.167 36.5,352.5C 35.8902,351.609 35.5569,350.609 35.5,349.5C 35.7373,348.209 35.404,347.209 34.5,346.5C 33.8413,343.545 33.5079,340.545 33.5,337.5C 32.962,335.883 32.6287,334.216 32.5,332.5C 32.5,330.5 32.5,328.5 32.5,326.5C 32.7678,324.901 32.4345,323.568 31.5,322.5C 30.5599,311.489 30.8933,300.489 32.5,289.5C 33.3414,287.621 33.6747,285.621 33.5,283.5C 34.079,279.763 34.079,276.096 33.5,272.5C 35.448,267.992 36.7813,263.325 37.5,258.5C 38.4345,257.432 38.7678,256.099 38.5,254.5C 38.5,254.167 38.5,253.833 38.5,253.5C 39.1098,252.609 39.4431,251.609 39.5,250.5C 39.9202,248.326 39.9202,246.326 39.5,244.5C 41.7113,238.509 43.7113,232.842 45.5,227.5C 45.8333,226.833 46.1667,226.167 46.5,225.5C 46.6309,224.624 46.2975,223.957 45.5,223.5C 36.3073,217.386 27.974,211.72 20.5,206.5C 20.573,204.973 19.9063,203.973 18.5,203.5C 16.5,202.167 14.5,200.833 12.5,199.5C 12.5,199.167 12.5,198.833 12.5,198.5C 11.7377,196.738 10.4044,195.738 8.5,195.5C 5.21365,192.801 3.21365,189.635 2.5,186C 4.27906,183.358 6.77906,181.858 10,181.5C 18.2843,184.235 25.951,187.235 33,190.5C 34.5655,189.939 35.8989,190.606 37,192.5C 37.3333,192.167 37.6667,191.833 38,191.5C 39.2708,192.883 40.7708,193.883 42.5,194.5C 42.8417,195.338 43.5084,195.672 44.5,195.5C 48.3532,196.45 52.0198,197.783 55.5,199.5C 57.2837,200.72 58.9504,200.72 60.5,199.5C 61.6129,198.054 61.7796,196.387 61,194.5C 60,192.5 59,190.5 58,188.5C 47.3019,175.642 36.4686,162.975 25.5,150.5C 25.0679,149.29 24.4013,148.29 23.5,147.5C 19.7081,144.7 17.0415,141.033 15.5,136.5C 15.1667,135.5 14.5,134.833 13.5,134.5C 10.7499,131.443 10.2499,128.11 12,124.5C 14.015,123.158 16.1817,122.658 18.5,123C 37.4352,135.032 55.2685,147.865 72,161.5C 72.3333,161.167 72.6667,160.833 73,160.5C 74.6667,162.833 76.6667,164.833 79,166.5C 79.3333,166.167 79.6667,165.833 80,165.5C 81.7479,167.628 83.9145,168.961 86.5,169.5C 87.221,171.382 88.221,171.715 89.5,170.5C 90.3007,168.958 90.634,167.292 90.5,165.5C 90.405,163.214 89.7384,161.214 88.5,159.5C 85.1444,151.602 81.1444,143.602 76.5,135.5C 76.7373,134.209 76.404,133.209 75.5,132.5C 74.3381,131.322 73.3381,130.155 72.5,129C 72.9574,128.586 73.2907,128.086 73.5,127.5C 70.0826,123.689 69.7493,119.689 72.5,115.5C 74.5286,116.844 76.5286,118.177 78.5,119.5 Z M 63.5,267.5 C 64.0256,269.23 65.0256,270.564 66.5,271.5C 66.8766,273.794 66.3766,276.127 65,278.5C 60.4655,283.489 55.6321,283.822 50.5,279.5C 49.0499,278.15 48.3832,276.484 48.5,274.5C 49.6857,273.039 49.6857,271.705 48.5,270.5C 49.9933,268.068 51.9933,266.068 54.5,264.5C 56.1667,265.833 57.8333,265.833 59.5,264.5C 61.261,265.035 62.5943,266.035 63.5,267.5 Z"/></g>
<g><path style="opacity:0.622" fill="#eaa7a2" d="M 220.5,117.5 C 218.236,118.219 215.903,118.552 213.5,118.5C 215.713,116.688 218.047,116.355 220.5,117.5 Z"/></g>
<g><path style="opacity:0.616" fill="#e9a29c" d="M 365.5,116.5 C 364.486,117.674 363.153,118.34 361.5,118.5C 362.315,117.163 363.482,116.163 365,115.5C 365.399,115.728 365.565,116.062 365.5,116.5 Z"/></g>
<g><path style="opacity:0.62" fill="#e89b97" d="M 208.5,118.5 C 207.432,119.434 206.099,119.768 204.5,119.5C 205.531,118.751 206.698,118.085 208,117.5C 208.399,117.728 208.565,118.062 208.5,118.5 Z"/></g>
<g><path style="opacity:0.62" fill="#e89b96" d="M 201.5,119.5 C 200.791,120.404 199.791,120.737 198.5,120.5C 199.172,119.733 200.005,119.066 201,118.5C 201.399,118.728 201.565,119.062 201.5,119.5 Z"/></g>
<g><path style="opacity:0.035" fill="#eac7c4" d="M 78.5,119.5 C 79.7095,119.932 80.7095,120.599 81.5,121.5C 79.8212,121.715 78.8212,121.048 78.5,119.5 Z"/></g>
<g><path style="opacity:0.051" fill="#e7d9d8" d="M 276.5,121.5 C 277.947,120.115 278.947,120.448 279.5,122.5C 278.609,121.89 277.609,121.557 276.5,121.5 Z"/></g>
<g><path style="opacity:0.612" fill="#eaa9a4" d="M 183.5,123.5 C 182.791,124.404 181.791,124.737 180.5,124.5C 181.172,123.733 182.005,123.066 183,122.5C 183.399,122.728 183.565,123.062 183.5,123.5 Z"/></g>
<g><path style="opacity:0.616" fill="#e89b96" d="M 179.5,124.5 C 178.791,125.404 177.791,125.737 176.5,125.5C 177.172,124.733 178.005,124.066 179,123.5C 179.399,123.728 179.565,124.062 179.5,124.5 Z"/></g>
<g><path style="opacity:0.618" fill="#e8948e" d="M 292.5,125.5 C 291.209,125.737 290.209,125.404 289.5,124.5C 289.435,124.062 289.601,123.728 290,123.5C 290.995,124.066 291.828,124.733 292.5,125.5 Z"/></g>
<g><path style="opacity:0.053" fill="#eac7c4" d="M 75.5,132.5 C 76.404,133.209 76.7373,134.209 76.5,135.5C 75.7326,134.828 75.0659,133.995 74.5,133C 74.7284,132.601 75.0618,132.435 75.5,132.5 Z"/></g>
<g><path style="opacity:0.049" fill="#e7d6d5" d="M 13.5,134.5 C 14.5,134.833 15.1667,135.5 15.5,136.5C 14.1667,136.5 13.5,135.833 13.5,134.5 Z"/></g>
<g><path style="opacity:0.035" fill="#e5e6e5" d="M 410.5,135.5 C 411.833,136.167 411.833,136.167 410.5,135.5 Z"/></g>
<g><path style="opacity:0.039" fill="#e8d1d1" d="M 407.5,136.5 C 406.07,137.537 404.403,138.204 402.5,138.5C 403.635,136.787 405.302,136.12 407.5,136.5 Z"/></g>
<g><path style="opacity:0.606" fill="#e8908b" d="M 330.5,138.5 C 329.779,140.382 328.779,140.715 327.5,139.5C 328.209,138.596 329.209,138.263 330.5,138.5 Z"/></g>
<g><path style="opacity:0.047" fill="#e7d9d8" d="M 23.5,147.5 C 24.4013,148.29 25.0679,149.29 25.5,150.5C 23.9519,150.179 23.2852,149.179 23.5,147.5 Z"/></g>
<g><path style="opacity:0.306" fill="#e8c6c5" d="M 383.5,150.5 C 383.158,151.338 382.492,151.672 381.5,151.5C 382.006,149.895 382.673,149.561 383.5,150.5 Z"/></g>
<g><path style="opacity:0.047" fill="#e8cece" d="M 88.5,159.5 C 89.7384,161.214 90.405,163.214 90.5,165.5C 88.9261,163.898 88.2594,161.898 88.5,159.5 Z"/></g>
<g><path style="opacity:0.614" fill="#e78a85" d="M 86.5,169.5 C 87.609,169.557 88.609,169.89 89.5,170.5C 88.221,171.715 87.221,171.382 86.5,169.5 Z"/></g>
<g><path style="opacity:0.314" fill="#e8c9c9" d="M 407.5,186.5 C 406.791,187.404 405.791,187.737 404.5,187.5C 405.172,186.733 406.005,186.066 407,185.5C 407.399,185.728 407.565,186.062 407.5,186.5 Z"/></g>
<g><path style="opacity:0.306" fill="#e8c6c5" d="M 44.5,195.5 C 43.5084,195.672 42.8417,195.338 42.5,194.5C 43.3274,193.561 43.9941,193.895 44.5,195.5 Z"/></g>
<g><path style="opacity:0.278" fill="#e9b2b0" d="M 8.5,195.5 C 10.4044,195.738 11.7377,196.738 12.5,198.5C 10.5956,198.262 9.26231,197.262 8.5,195.5 Z"/></g>
<g><path style="opacity:0.004" fill="#e5e6e5" d="M 12.5,199.5 C 11.8333,200.167 11.8333,200.167 12.5,199.5 Z"/></g>
<g><path style="opacity:0.61" fill="#e78c87" d="M 55.5,199.5 C 57.2554,199.255 58.9221,199.255 60.5,199.5C 58.9504,200.72 57.2837,200.72 55.5,199.5 Z"/></g>
<g><path style="opacity:0.026" fill="#e7d9d8" d="M 18.5,203.5 C 19.9063,203.973 20.573,204.973 20.5,206.5C 19.0937,206.027 18.427,205.027 18.5,203.5 Z"/></g>
<g><path style="opacity:0.034" fill="#e7d9d9" d="M 265.5,210.5 C 266.833,210.833 268.167,211.167 269.5,211.5C 267.872,212.853 266.538,212.519 265.5,210.5 Z"/></g>
<g><path style="opacity:0.039" fill="#e7d9d8" d="M 182.5,223.5 C 181.828,224.267 180.995,224.934 180,225.5C 179.601,225.272 179.435,224.938 179.5,224.5C 180.209,223.596 181.209,223.263 182.5,223.5 Z"/></g>
<g><path style="opacity:1" fill="#d3180b" d="M 204.5,309.5 C 203.71,308.599 202.71,307.932 201.5,307.5C 200.292,306.766 198.959,306.433 197.5,306.5C 197.137,304.089 198.137,302.589 200.5,302C 200.167,301.667 199.833,301.333 199.5,301C 201.056,300.28 202.056,299.113 202.5,297.5C 203.167,297.5 203.5,297.167 203.5,296.5C 204.89,295.101 205.89,293.434 206.5,291.5C 206.389,290.883 206.056,290.383 205.5,290C 208.181,287.701 210.181,285.367 211.5,283C 211.167,282.667 210.833,282.333 210.5,282C 213.211,279.863 215.211,277.197 216.5,274C 221.294,263.472 227.294,253.138 234.5,243C 237.124,236.288 240.79,229.788 245.5,223.5C 261.475,249.281 276.808,275.448 291.5,302C 287.938,305.534 283.772,308.368 279,310.5C 278,308.167 276.333,306.5 274,305.5C 273.727,303.899 273.227,302.399 272.5,301C 255.311,301.072 238.811,300.906 223,300.5C 221.833,300.833 220.667,301.167 219.5,301.5C 217.968,305.441 215.968,309.441 213.5,313.5C 211.61,313.703 210.11,313.037 209,311.5C 208.667,311.833 208.333,312.167 208,312.5C 206.845,311.662 205.678,310.662 204.5,309.5 Z"/></g>
<g><path style="opacity:0.022" fill="#e7d6d5" d="M 46.5,225.5 C 46.1667,226.167 45.8333,226.833 45.5,227.5C 44.2426,226.377 44.5759,225.711 46.5,225.5 Z"/></g>
<g><path style="opacity:0.612" fill="#eaa9a4" d="M 39.5,250.5 C 39.4431,251.609 39.1098,252.609 38.5,253.5C 37.2848,252.221 37.6182,251.221 39.5,250.5 Z"/></g>
<g><path style="opacity:0.614" fill="#e99d97" d="M 38.5,254.5 C 38.7678,256.099 38.4345,257.432 37.5,258.5C 36.5573,256.999 36.8906,255.665 38.5,254.5 Z"/></g>
<g><path style="opacity:0.058" fill="#e5e6e5" d="M 79.5,258.5 C 80.1667,258.5 80.5,258.833 80.5,259.5C 80.5,260.167 80.5,260.833 80.5,261.5C 79.5,261.167 78.8333,260.5 78.5,259.5C 79.1667,259.5 79.5,259.167 79.5,258.5 Z"/></g>
<g><path style="opacity:0.071" fill="#e5e6e5" d="M 88.5,263.5 C 89.7095,263.932 90.7095,264.599 91.5,265.5C 89.8212,265.715 88.8212,265.048 88.5,263.5 Z"/></g>
<g><path style="opacity:0.052" fill="#e7dcdc" d="M 63.5,267.5 C 65.4456,268.035 66.4456,269.368 66.5,271.5C 65.0256,270.564 64.0256,269.23 63.5,267.5 Z"/></g>
<g><path style="opacity:0.055" fill="#e5e6e5" d="M 96.5,267.5 C 97.7095,267.932 98.7095,268.599 99.5,269.5C 97.8212,269.715 96.8212,269.048 96.5,267.5 Z"/></g>
<g><path style="opacity:0.325" fill="#e8bebd" d="M 48.5,270.5 C 49.6857,271.705 49.6857,273.039 48.5,274.5C 47.6457,273.368 47.6457,272.035 48.5,270.5 Z"/></g>
<g><path style="opacity:0.042" fill="#e8d3d3" d="M 361.5,277.5 C 362.974,278.436 363.974,279.77 364.5,281.5C 362.554,280.965 361.554,279.632 361.5,277.5 Z"/></g>
<g><path style="opacity:0.614" fill="#e9a39e" d="M 33.5,283.5 C 33.6747,285.621 33.3414,287.621 32.5,289.5C 31.5155,287.402 31.8489,285.402 33.5,283.5 Z"/></g>
<g><path style="opacity:0.053" fill="#e8cece" d="M 168.5,290.5 C 178.341,289.177 188.341,289.177 198.5,290.5C 198.376,291.107 198.043,291.44 197.5,291.5C 188.014,290.506 178.348,290.173 168.5,290.5 Z"/></g>
<g><path style="opacity:0.999" fill="#d3170b" d="M 351.5,289.5 C 351.5,290.167 351.5,290.833 351.5,291.5C 349.119,294.56 347.119,297.894 345.5,301.5C 344.5,301.833 343.833,302.5 343.5,303.5C 339.244,311.163 334.577,318.663 329.5,326C 329.833,326.333 330.167,326.667 330.5,327C 327.407,330.869 324.407,334.702 321.5,338.5C 319.647,335.89 317.98,333.223 316.5,330.5C 316.672,329.508 316.338,328.842 315.5,328.5C 315.167,327.167 314.833,327.167 314.5,328.5C 314.742,326.544 314.075,324.544 312.5,322.5C 312.167,321.5 311.5,320.833 310.5,320.5C 310.5,320.167 310.5,319.833 310.5,319.5C 310.068,318.29 309.401,317.29 308.5,316.5C 303.503,307.748 298.17,298.581 292.5,289C 311.984,289.15 331.651,289.317 351.5,289.5 Z"/></g>
<g><path style="opacity:0.024" fill="#e7d6d5" d="M 351.5,289.5 C 353.933,289.786 353.933,290.452 351.5,291.5C 351.5,290.833 351.5,290.167 351.5,289.5 Z"/></g>
<g><path style="opacity:0.999" fill="#d41c0e" d="M 168.5,290.5 C 178.348,290.173 188.014,290.506 197.5,291.5C 189.275,306.932 180.609,322.599 171.5,338.5C 170.833,338.5 170.5,338.833 170.5,339.5C 169.833,340.167 169.167,340.833 168.5,341.5C 167.884,339.583 166.55,338.416 164.5,338C 165.634,336.984 165.301,336.317 163.5,336C 163.5,335 163.5,334 163.5,333C 160.833,329.667 158.167,326.333 155.5,323C 155.833,322.667 156.167,322.333 156.5,322C 155.013,319.515 153.179,317.348 151,315.5C 148.068,309.092 144.568,303.092 140.5,297.5C 140.672,296.508 140.338,295.842 139.5,295.5C 138.172,294.493 137.172,293.16 136.5,291.5C 147.287,289.803 157.954,289.47 168.5,290.5 Z"/></g>
<g><path style="opacity:0.016" fill="#e7dad9" d="M 206.5,291.5 C 205.89,293.434 204.89,295.101 203.5,296.5C 202.833,296.5 202.5,296.833 202.5,297.5C 200.623,296.341 200.123,294.674 201,292.5C 201.249,293.624 201.749,294.624 202.5,295.5C 203.521,293.812 204.855,292.479 206.5,291.5 Z"/></g>
<g><path style="opacity:0.043" fill="#e7d6d5" d="M 368.5,293.5 C 369.5,293.833 370.167,294.5 370.5,295.5C 369.167,295.5 368.5,294.833 368.5,293.5 Z"/></g>
<g><path style="opacity:0.004" fill="#e5e6e5" d="M 71.5,295.5 C 72.8333,296.167 72.8333,296.167 71.5,295.5 Z"/></g>
<g><path style="opacity:0.31" fill="#e8c6c5" d="M 139.5,295.5 C 140.338,295.842 140.672,296.508 140.5,297.5C 138.895,296.994 138.561,296.327 139.5,295.5 Z"/></g>
<g><path style="opacity:0.046" fill="#e5e6e5" d="M 102.5,297.5 C 103.338,297.842 103.672,298.508 103.5,299.5C 101.895,298.994 101.561,298.327 102.5,297.5 Z"/></g>
<g><path style="opacity:0.035" fill="#e7d6d5" d="M 371.5,300.5 C 371.833,301.167 372.167,301.833 372.5,302.5C 370.576,302.289 370.243,301.623 371.5,300.5 Z"/></g>
<g><path style="opacity:0.037" fill="#e7d6d5" d="M 345.5,301.5 C 345.5,302.833 344.833,303.5 343.5,303.5C 343.833,302.5 344.5,301.833 345.5,301.5 Z"/></g>
<g><path style="opacity:0.012" fill="#e5e6e5" d="M 104.5,304.5 C 103.833,303.167 103.833,303.167 104.5,304.5 Z"/></g>
<g><path style="opacity:0.32" fill="#e8bbba" d="M 372.5,303.5 C 373.11,304.391 373.443,305.391 373.5,306.5C 371.618,305.779 371.285,304.779 372.5,303.5 Z"/></g>
<g><path style="opacity:0.306" fill="#e8b6b5" d="M 104.5,305.5 C 104.167,306.5 103.5,307.167 102.5,307.5C 102.5,306.167 103.167,305.5 104.5,305.5 Z"/></g>
<g><path style="opacity:0.018" fill="#e7dcdc" d="M 201.5,307.5 C 202.71,307.932 203.71,308.599 204.5,309.5C 204.565,309.938 204.399,310.272 204,310.5C 202.933,309.809 201.766,309.309 200.5,309C 201.056,308.617 201.389,308.117 201.5,307.5 Z"/></g>
<g><path style="opacity:0.004" fill="#e5e6e5" d="M 103.5,314.5 C 102.833,315.167 102.833,315.167 103.5,314.5 Z"/></g>
<g><path style="opacity:0.048" fill="#e7d9d9" d="M 308.5,316.5 C 309.401,317.29 310.068,318.29 310.5,319.5C 309.624,319.631 308.957,319.298 308.5,318.5C 307.45,317.571 307.45,316.905 308.5,316.5 Z"/></g>
<g><path style="opacity:0.302" fill="#e8bbba" d="M 88.5,322.5 C 88.1667,322.5 87.8333,322.5 87.5,322.5C 86.2267,321.923 86.2267,321.257 87.5,320.5C 88.2975,320.957 88.6309,321.624 88.5,322.5 Z"/></g>
<g><path style="opacity:0.047" fill="#e5e6e5" d="M 310.5,320.5 C 311.5,320.833 312.167,321.5 312.5,322.5C 311.761,322.631 311.094,322.464 310.5,322C 309.262,321.31 309.262,320.81 310.5,320.5 Z"/></g>
<g><path style="opacity:0.004" fill="#e5e6e5" d="M 182.5,321.5 C 183.833,322.167 183.833,322.167 182.5,321.5 Z"/></g>
<g><path style="opacity:0.299" fill="#e8bbba" d="M 31.5,322.5 C 32.4345,323.568 32.7678,324.901 32.5,326.5C 31.7515,325.469 31.0848,324.302 30.5,323C 30.7284,322.601 31.0618,322.435 31.5,322.5 Z"/></g>
<g><path style="opacity:0.022" fill="#e7dddd" d="M 188.5,326.5 C 187.833,326.167 187.167,325.833 186.5,325.5C 185.167,325.833 185.167,326.167 186.5,326.5C 186.068,327.71 185.401,328.71 184.5,329.5C 184.192,327.076 184.526,324.743 185.5,322.5C 186.934,323.588 187.934,324.922 188.5,326.5 Z"/></g>
<g><path style="opacity:0.039" fill="#e7dcdc" d="M 302.5,322.5 C 301.486,323.674 300.153,324.34 298.5,324.5C 298.694,323.032 300.028,322.365 302.5,322.5 Z"/></g>
<g><path style="opacity:1" fill="#d31509" d="M 302.5,322.5 C 302.833,322.5 303.167,322.5 303.5,322.5C 303.833,323.5 304.5,324.167 305.5,324.5C 321.555,353.148 337.888,381.315 354.5,409C 353.056,410.064 351.389,410.564 349.5,410.5C 329.073,409.959 309.073,409.626 289.5,409.5C 278.833,409.5 268.167,409.5 257.5,409.5C 257.5,407.167 257.5,404.833 257.5,402.5C 257.5,399.5 257.5,396.5 257.5,393.5C 263.026,393.821 268.36,393.488 273.5,392.5C 273.975,390.216 274.975,388.216 276.5,386.5C 277.906,386.027 278.573,385.027 278.5,383.5C 282.197,375.596 287.03,367.262 293,358.5C 293.654,355.992 294.821,353.826 296.5,352C 296.167,351.667 295.833,351.333 295.5,351C 297.635,350.241 298.968,348.741 299.5,346.5C 296.792,342.091 294.126,338.257 291.5,335C 292.171,334.014 292.171,332.847 291.5,331.5C 291.5,330.833 291.5,330.167 291.5,329.5C 294.047,328.066 296.381,326.4 298.5,324.5C 300.153,324.34 301.486,323.674 302.5,322.5 Z"/></g>
<g><path style="opacity:0.046" fill="#e5e6e5" d="M 303.5,322.5 C 304.833,322.5 305.5,323.167 305.5,324.5C 304.5,324.167 303.833,323.5 303.5,322.5 Z"/></g>
<g><path style="opacity:0.999" fill="#d3160a" d="M 186.5,325.5 C 187.167,325.833 187.833,326.167 188.5,326.5C 191.446,327.973 194.779,329.64 198.5,331.5C 198.842,332.338 199.508,332.672 200.5,332.5C 200.5,333.167 200.5,333.833 200.5,334.5C 199.326,335.514 198.66,336.847 198.5,338.5C 197.119,341.074 195.452,343.574 193.5,346C 201.112,359.301 208.112,371.968 214.5,384C 217.057,386.276 218.724,389.11 219.5,392.5C 224.5,393.167 229.5,393.833 234.5,394.5C 234.72,398.044 234.72,401.378 234.5,404.5C 234.5,406.167 234.5,407.833 234.5,409.5C 231.287,409.19 228.287,409.523 225.5,410.5C 198.806,410.673 172.139,411.006 145.5,411.5C 142.823,410.926 140.157,410.259 137.5,409.5C 137.624,408.893 137.957,408.56 138.5,408.5C 138.833,409.833 139.167,409.833 139.5,408.5C 140.89,407.101 141.89,405.434 142.5,403.5C 143.117,401.771 144.117,400.271 145.5,399C 144.366,397.984 144.699,397.317 146.5,397C 146.167,396.667 145.833,396.333 145.5,396C 151.493,387.833 156.826,379.333 161.5,370.5C 162.404,369.791 162.737,368.791 162.5,367.5C 163.883,364.321 165.883,360.988 168.5,357.5C 169.906,357.027 170.573,356.027 170.5,354.5C 172.951,350.564 174.951,346.897 176.5,343.5C 179.31,337.947 181.977,333.28 184.5,329.5C 185.401,328.71 186.068,327.71 186.5,326.5C 186.5,326.167 186.5,325.833 186.5,325.5 Z"/></g>
<g><path style="opacity:0.298" fill="#e8c6c5" d="M 314.5,328.5 C 314.833,328.5 315.167,328.5 315.5,328.5C 316.338,328.842 316.672,329.508 316.5,330.5C 315.5,330.167 314.833,329.5 314.5,328.5 Z"/></g>
<g><path style="opacity:0.62" fill="#e8908b" d="M 291.5,329.5 C 291.5,330.167 291.5,330.833 291.5,331.5C 290.35,332.85 289.683,332.684 289.5,331C 289.836,329.97 290.503,329.47 291.5,329.5 Z"/></g>
<g><path style="opacity:0.061" fill="#e5e6e5" d="M 200.5,332.5 C 199.508,332.672 198.842,332.338 198.5,331.5C 199.327,330.561 199.994,330.895 200.5,332.5 Z"/></g>
<g><path style="opacity:0.049" fill="#e7dcdc" d="M 32.5,332.5 C 32.6287,334.216 32.962,335.883 33.5,337.5C 31.4031,336.121 31.0698,334.455 32.5,332.5 Z"/></g>
<g><path style="opacity:0.064" fill="#e8d3d2" d="M 377.5,330.5 C 378.473,332.948 378.806,335.615 378.5,338.5C 377.79,336.107 377.123,333.607 376.5,331C 376.728,330.601 377.062,330.435 377.5,330.5 Z"/></g>
<g><path style="opacity:0.045" fill="#e7dbdb" d="M 200.5,334.5 C 200.771,336.38 200.104,337.713 198.5,338.5C 198.66,336.847 199.326,335.514 200.5,334.5 Z"/></g>
<g><path style="opacity:0.012" fill="#e5e6e5" d="M 171.5,338.5 C 172.833,339.167 172.833,339.167 171.5,338.5 Z"/></g>
<g><path style="opacity:0.013" fill="#e5e6e5" d="M 174.5,340.5 C 174.517,338.972 175.184,338.472 176.5,339C 175.956,339.717 175.289,340.217 174.5,340.5 Z"/></g>
<g><path style="opacity:0.024" fill="#e5e6e5" d="M 321.5,338.5 C 320.833,339.167 320.833,339.167 321.5,338.5 Z"/></g>
<g><path style="opacity:0.029" fill="#e7dedd" d="M 170.5,339.5 C 170.833,339.5 171.167,339.5 171.5,339.5C 171.5,340.167 171.5,340.833 171.5,341.5C 170.528,344.098 169.528,344.098 168.5,341.5C 169.167,340.833 169.833,340.167 170.5,339.5 Z"/></g>
<g><path style="opacity:0.008" fill="#e5e6e5" d="M 174.5,340.5 C 174.306,344.005 173.306,344.338 171.5,341.5C 172.391,340.89 173.391,340.557 174.5,340.5 Z"/></g>
<g><path style="opacity:0.031" fill="#e5e6e5" d="M 176.5,343.5 C 175.833,342.167 175.833,342.167 176.5,343.5 Z"/></g>
<g><path style="opacity:0.661" fill="#e8948e" d="M 133.5,345.5 C 135.76,346.238 135.927,347.238 134,348.5C 133.601,348.272 133.435,347.938 133.5,347.5C 133.5,346.833 133.5,346.167 133.5,345.5 Z"/></g>
<g><path style="opacity:0.053" fill="#eac7c4" d="M 34.5,346.5 C 35.404,347.209 35.7373,348.209 35.5,349.5C 34.7326,348.828 34.0659,347.995 33.5,347C 33.7284,346.601 34.0618,346.435 34.5,346.5 Z"/></g>
<g><path style="opacity:0.043" fill="#e7d6d5" d="M 36.5,352.5 C 36.8333,353.167 37.1667,353.833 37.5,354.5C 35.5759,354.289 35.2426,353.623 36.5,352.5 Z"/></g>
<g><path style="opacity:0.039" fill="#e7d9d8" d="M 421.5,352.5 C 422.715,353.779 422.382,354.779 420.5,355.5C 420.557,354.391 420.89,353.391 421.5,352.5 Z"/></g>
<g><path style="opacity:0.624" fill="#eaa9a4" d="M 170.5,354.5 C 170.573,356.027 169.906,357.027 168.5,357.5C 168.427,355.973 169.094,354.973 170.5,354.5 Z"/></g>
<g><path style="opacity:0.027" fill="#e8d3d3" d="M 46.5,357.5 C 46.5299,358.497 46.0299,359.164 45,359.5C 43.8691,360.335 43.0358,360.335 42.5,359.5C 43.6715,358.655 45.0048,357.989 46.5,357.5 Z"/></g>
<g><path style="opacity:0.05" fill="#e5e6e5" d="M 41.5,359.5 C 40.968,362.46 40.3013,362.793 39.5,360.5C 40.1667,360.167 40.8333,359.833 41.5,359.5 Z"/></g>
<g><path style="opacity:0.035" fill="#e9ccca" d="M 376.5,363.5 C 376.802,366.059 376.468,368.393 375.5,370.5C 375.062,370.565 374.728,370.399 374.5,370C 375.117,367.723 375.784,365.556 376.5,363.5 Z"/></g>
<g><path style="opacity:0.616" fill="#eaa9a4" d="M 162.5,367.5 C 162.737,368.791 162.404,369.791 161.5,370.5C 161.062,370.565 160.728,370.399 160.5,370C 161.066,369.005 161.733,368.172 162.5,367.5 Z"/></g>
<g><path style="opacity:0.008" fill="#e7d6d5" d="M 416.5,373.5 C 417.439,374.327 417.105,374.994 415.5,375.5C 415.328,374.508 415.662,373.842 416.5,373.5 Z"/></g>
<g><path style="opacity:0.318" fill="#e8c6c5" d="M 89.5,373.5 C 90.038,375.117 90.3713,376.784 90.5,378.5C 88.655,377.005 88.3217,375.338 89.5,373.5 Z"/></g>
<g><path style="opacity:0.039" fill="#e9ccc9" d="M 97.5,377.5 C 99.1042,378.287 99.7709,379.62 99.5,381.5C 98.3263,380.486 97.6596,379.153 97.5,377.5 Z"/></g>
<g><path style="opacity:0.608" fill="#e89b96" d="M 373.5,381.5 C 373.737,382.791 373.404,383.791 372.5,384.5C 372.062,384.565 371.728,384.399 371.5,384C 372.066,383.005 372.733,382.172 373.5,381.5 Z"/></g>
<g><path style="opacity:0.62" fill="#eaa9a4" d="M 278.5,383.5 C 278.573,385.027 277.906,386.027 276.5,386.5C 276.427,384.973 277.094,383.973 278.5,383.5 Z"/></g>
<g><path style="opacity:0.044" fill="#e7d9d8" d="M 92.5,389.5 C 92.5569,390.609 92.8902,391.609 93.5,392.5C 91.4482,391.947 91.1148,390.947 92.5,389.5 Z"/></g>
<g><path style="opacity:0.608" fill="#e89995" d="M 371.5,389.5 C 371.34,391.153 370.674,392.486 369.5,393.5C 369.229,391.62 369.896,390.287 371.5,389.5 Z"/></g>
<g><path style="opacity:0.635" fill="#e6847f" d="M 234.5,394.5 C 229.5,393.833 224.5,393.167 219.5,392.5C 224.322,392.369 229.155,392.035 234,391.5C 235.546,392.503 235.713,393.503 234.5,394.5 Z"/></g>
<g><path style="opacity:0.618" fill="#e78b86" d="M 273.5,392.5 C 268.36,393.488 263.026,393.821 257.5,393.5C 256.475,393.103 256.308,392.437 257,391.5C 262.503,391.874 268.003,392.207 273.5,392.5 Z"/></g>
<g><path style="opacity:0.034" fill="#e9cbc9" d="M 142.5,403.5 C 141.89,405.434 140.89,407.101 139.5,408.5C 139.167,408.5 138.833,408.5 138.5,408.5C 139.124,406.246 140.457,404.579 142.5,403.5 Z"/></g>
<g><path style="opacity:0.616" fill="#e89b96" d="M 365.5,403.5 C 365.573,405.027 364.906,406.027 363.5,406.5C 363.427,404.973 364.094,403.973 365.5,403.5 Z"/></g>
<g><path style="opacity:0.61" fill="#e99e98" d="M 234.5,404.5 C 235.793,406.364 235.793,408.364 234.5,410.5C 231.674,411.007 228.674,411.007 225.5,410.5C 228.287,409.523 231.287,409.19 234.5,409.5C 234.5,407.833 234.5,406.167 234.5,404.5 Z"/></g>
<g><path style="opacity:0.308" fill="#e8c2c1" d="M 257.5,402.5 C 257.5,404.833 257.5,407.167 257.5,409.5C 268.167,409.5 278.833,409.5 289.5,409.5C 279.098,410.177 268.598,410.844 258,411.5C 256.246,408.508 256.079,405.508 257.5,402.5 Z"/></g>
<g><path style="opacity:0.027" fill="#e5e6e5" d="M 264.5,417.5 C 264.167,417.5 263.833,417.5 263.5,417.5C 262.167,416.167 260.833,416.167 259.5,417.5C 258.833,417.5 258.167,417.5 257.5,417.5C 257.34,415.801 257.506,414.134 258,412.5C 260.075,414.648 262.408,414.982 265,413.5C 265.579,414.928 265.412,416.262 264.5,417.5 Z"/></g>
<g><path style="opacity:0.627" fill="#e9a29c" d="M 100.5,415.5 C 101.906,415.973 102.573,416.973 102.5,418.5C 100.65,417.758 99.9836,416.758 100.5,415.5 Z"/></g>
<g><path style="opacity:0.999" fill="#d41d0f" d="M 257.5,417.5 C 258.167,417.5 258.833,417.5 259.5,417.5C 260.833,417.5 262.167,417.5 263.5,417.5C 263.833,417.5 264.167,417.5 264.5,417.5C 267.385,417.194 270.052,417.527 272.5,418.5C 263.009,433.189 253.843,447.855 245,462.5C 237.723,449.261 229.223,435.928 219.5,422.5C 219.34,420.847 218.674,419.514 217.5,418.5C 220.36,417.756 223.36,417.089 226.5,416.5C 236.655,417.261 246.989,417.595 257.5,417.5 Z"/></g>
<g><path style="opacity:0.039" fill="#e5e6e5" d="M 217.5,418.5 C 218.674,419.514 219.34,420.847 219.5,422.5C 218.163,421.685 217.163,420.518 216.5,419C 216.728,418.601 217.062,418.435 217.5,418.5 Z"/></g>
<g><path style="opacity:0.025" fill="#e5e6e5" d="M 272.5,418.5 C 273.525,418.897 273.692,419.563 273,420.5C 272.536,419.906 272.369,419.239 272.5,418.5 Z"/></g>
<g><path style="opacity:0.071" fill="#e7d9d8" d="M 104.5,424.5 C 105.401,425.29 106.068,426.29 106.5,427.5C 104.952,427.179 104.285,426.179 104.5,424.5 Z"/></g>
<g><path style="opacity:0.612" fill="#eaa9a4" d="M 352.5,423.5 C 352.573,425.027 351.906,426.027 350.5,426.5C 350.427,424.973 351.094,423.973 352.5,423.5 Z"/></g>
<g><path style="opacity:0.043" fill="#e5e6e5" d="M 110.5,435.5 C 111.338,435.842 111.672,436.508 111.5,437.5C 109.895,436.994 109.561,436.327 110.5,435.5 Z"/></g>
<g><path style="opacity:0.314" fill="#e8c6c5" d="M 317.5,455.5 C 317.158,456.338 316.492,456.672 315.5,456.5C 316.006,454.895 316.673,454.561 317.5,455.5 Z"/></g>
<g><path style="opacity:0.065" fill="#e5e6e5" d="M 307.5,460.5 C 307.167,461.5 306.5,462.167 305.5,462.5C 305.5,461.167 306.167,460.5 307.5,460.5 Z"/></g>
<g><path style="opacity:0.025" fill="#e7d6d5" d="M 291.5,467.5 C 290.833,467.833 290.167,468.167 289.5,468.5C 289.711,466.576 290.377,466.243 291.5,467.5 Z"/></g>
<g><path style="opacity:0.045" fill="#eac1be" d="M 286.5,469.5 C 284.698,470.458 282.698,471.125 280.5,471.5C 280.611,470.883 280.944,470.383 281.5,470C 283.101,469.727 284.601,469.227 286,468.5C 286.399,468.728 286.565,469.062 286.5,469.5 Z"/></g>
<g><path style="opacity:0.62" fill="#e9a29e" d="M 190.5,472.5 C 189.209,472.737 188.209,472.404 187.5,471.5C 187.435,471.062 187.601,470.728 188,470.5C 188.995,471.066 189.828,471.733 190.5,472.5 Z"/></g>
<g><path style="opacity:0.03" fill="#e7d9d8" d="M 270.5,473.5 C 269.391,473.557 268.391,473.89 267.5,474.5C 268.053,472.448 269.053,472.115 270.5,473.5 Z"/></g>
<g><path style="opacity:0.624" fill="#eaa5a0" d="M 257.5,475.5 C 255.735,476.461 253.735,476.795 251.5,476.5C 252.997,475.694 254.664,475.028 256.5,474.5C 257.107,474.624 257.44,474.957 257.5,475.5 Z"/></g>
<g><path style="opacity:0.31" fill="#e8c6c5" d="M 158.5,483.5 C 159.492,483.328 160.158,483.662 160.5,484.5C 159.673,485.439 159.006,485.105 158.5,483.5 Z"/></g>
<g><path style="opacity:0.064" fill="#e7d9d8" d="M 192.5,497.5 C 193.391,498.11 194.391,498.443 195.5,498.5C 194.053,499.885 193.053,499.552 192.5,497.5 Z"/></g>
<g><path style="opacity:0.03" fill="#e7d9d8" d="M 200.5,499.5 C 201.391,500.11 202.391,500.443 203.5,500.5C 202.053,501.885 201.053,501.552 200.5,499.5 Z"/></g>
<g><path style="opacity:0.024" fill="#e8d3d3" d="M 205.5,500.5 C 206.609,500.557 207.609,500.89 208.5,501.5C 207.053,502.885 206.053,502.552 205.5,500.5 Z"/></g>
<g><path style="opacity:0.036" fill="#e7dbda" d="M 216.5,502.5 C 219.57,502.368 222.57,502.701 225.5,503.5C 225.5,503.833 225.5,504.167 225.5,504.5C 224.5,504.5 223.5,504.5 222.5,504.5C 220.5,503.833 218.5,503.167 216.5,502.5 Z"/></g>
<g><path style="opacity:0.024" fill="#e6dfde" d="M 257.5,502.5 C 256.5,503.167 255.5,503.833 254.5,504.5C 252.833,504.5 251.167,504.5 249.5,504.5C 249.5,504.167 249.5,503.833 249.5,503.5C 252.167,503.167 254.833,502.833 257.5,502.5 Z"/></g>
</svg>
